# Blender 4.1.1
# www.blender.org
mtllib star.mtl
o 円柱
v 0.176734 -0.262675 0.771661
v -0.206085 -0.000000 0.000000
v 0.176734 -1.266646 0.893564
v 0.176734 -0.815065 -0.011363
v 0.176734 -1.241245 -0.928526
v 0.176734 -0.241062 -0.778684
v 0.176734 0.499515 -1.467424
v 0.176734 0.666080 -0.469890
v 0.176734 1.549962 0.021608
v 0.176734 0.652722 0.488276
v 0.176734 0.458414 1.480778
vn -0.8867 0.0557 0.4589
vn -0.8867 -0.4136 -0.2064
vn -0.8867 -0.4192 0.1948
vn -0.8867 0.0685 -0.4571
vn -0.8867 -0.3148 -0.3385
vn -0.8867 0.4559 -0.0761
vn -0.8867 0.2246 -0.4040
vn -0.8867 0.2133 0.4101
vn -0.8867 0.4536 0.0888
vn -0.8867 -0.3241 0.3296
vn 1.0000 -0.0000 -0.0000
vt 1.000000 0.500000
vt 0.900000 1.000000
vt 0.900000 0.500000
vt 0.800000 1.000000
vt 0.800000 0.500000
vt 0.700000 1.000000
vt 0.700000 0.500000
vt 0.600000 1.000000
vt 0.600000 0.500000
vt 0.500000 1.000000
vt 0.500000 0.500000
vt 0.400000 1.000000
vt 0.400000 0.500000
vt 0.300000 1.000000
vt 0.300000 0.500000
vt 0.200000 1.000000
vt 0.200000 0.500000
vt 0.100000 1.000000
vt 0.100000 0.500000
vt -0.000000 1.000000
vt -0.000000 0.500000
vt 0.750000 0.490000
vt 0.891068 0.055836
vt 0.521746 0.324164
vt 0.891068 0.444164
vt 0.978254 0.324164
vt 0.978254 0.175836
vt 0.750000 0.010000
vt 0.608932 0.055836
vt 0.521746 0.175836
vt 0.608932 0.444164
s 0
usemtl マテリアル
f 1/1/1 2/2/1 3/3/1
f 3/3/2 2/4/2 4/5/2
f 4/5/3 2/6/3 5/7/3
f 5/7/4 2/8/4 6/9/4
f 6/9/5 2/10/5 7/11/5
f 7/11/6 2/12/6 8/13/6
f 8/13/7 2/14/7 9/15/7
f 9/15/8 2/16/8 10/17/8
f 10/17/9 2/18/9 11/19/9
f 11/19/10 2/20/10 1/21/10
f 1/22/11 6/23/11 10/24/11
f 1/22/11 3/25/11 4/26/11
f 4/26/11 5/27/11 6/23/11
f 6/23/11 7/28/11 8/29/11
f 8/29/11 9/30/11 10/24/11
f 10/24/11 11/31/11 1/22/11
f 1/22/11 4/26/11 6/23/11
f 6/23/11 8/29/11 10/24/11
