# Blender 4.1.1
# www.blender.org
mtllib AL3_player.mtl
o Cube
v -1.000000 -1.000000 1.000000
v -1.000000 1.000000 -1.000000
v -1.000000 -1.000000 -1.000000
v 1.000000 -1.000000 1.000000
v 1.000000 1.000000 -1.000000
v 1.000000 -1.000000 -1.000000
v -1.000000 0.500000 1.000000
v 1.000000 0.500000 1.000000
v 1.000000 1.000000 0.500000
v -1.000000 1.000000 0.500000
vn -0.0000 -0.0000 -1.0000
vn -0.0000 0.7071 0.7071
vn -0.0000 -0.0000 1.0000
vn -0.0000 1.0000 -0.0000
vn -1.0000 -0.0000 -0.0000
vn -0.0000 -1.0000 -0.0000
vn 1.0000 -0.0000 -0.0000
vt 0.323416 0.323416
vt 0.009917 0.009917
vt 0.323416 0.009917
vt 0.630673 0.676584
vt 0.519834 0.990083
vt 0.519834 0.676584
vt 0.009917 0.676584
vt 0.245041 0.990083
vt 0.009917 0.990083
vt 0.500000 0.990083
vt 0.264876 0.676584
vt 0.500000 0.676584
vt 0.421625 0.323416
vt 0.343250 0.009917
vt 0.656750 0.009917
vt 0.656750 0.343250
vt 0.343250 0.656750
vt 0.343250 0.343250
vt 0.323416 0.656750
vt 0.009917 0.578375
vt 0.009917 0.343250
vt 0.009917 0.323416
vt 0.630673 0.990083
vt 0.245042 0.676584
vt 0.264876 0.990083
vt 0.656750 0.323416
vt 0.343250 0.245041
vt 0.656750 0.656750
vt 0.323416 0.343250
vt 0.088292 0.656750
s 0
usemtl Material
f 5/1/1 3/2/1 2/3/1
f 7/4/2 9/5/2 10/6/2
f 7/7/3 4/8/3 8/9/3
f 9/10/4 2/11/4 10/12/4
f 7/13/5 2/14/5 3/15/5
f 3/16/6 4/17/6 1/18/6
f 5/19/7 8/20/7 4/21/7
f 5/1/1 6/22/1 3/2/1
f 7/4/2 8/23/2 9/5/2
f 7/7/3 1/24/3 4/8/3
f 9/10/4 5/25/4 2/11/4
f 3/15/5 1/26/5 7/13/5
f 7/13/5 10/27/5 2/14/5
f 3/16/6 6/28/6 4/17/6
f 4/21/7 6/29/7 5/19/7
f 5/19/7 9/30/7 8/20/7
